<mxfile host="app.diagrams.net" modified="2022-05-03T07:52:12.027Z" agent="5.0 (X11)" etag="Y53KZvqPfcqhwZoQuiLQ" version="17.4.6" type="github">
  <diagram id="ZlZTLl9qBm76-yumSMIl" name="Page-1">
    <mxGraphModel dx="1422" dy="732" grid="1" gridSize="10" guides="1" tooltips="1" connect="1" arrows="1" fold="1" page="1" pageScale="1" pageWidth="850" pageHeight="1100" math="0" shadow="0">
      <root>
        <mxCell id="0" />
        <mxCell id="1" parent="0" />
        <mxCell id="5bI8XY3w1S8-RSY9WLTQ-2" value="" style="rounded=0;whiteSpace=wrap;html=1;fillColor=none;" parent="1" vertex="1">
          <mxGeometry x="150" y="280" width="620" height="200" as="geometry" />
        </mxCell>
        <mxCell id="5bI8XY3w1S8-RSY9WLTQ-3" value="&lt;font style=&quot;font-size: 16px&quot;&gt;Fire Detection&lt;/font&gt;" style="rounded=0;whiteSpace=wrap;html=1;" parent="1" vertex="1">
          <mxGeometry x="320" y="345" width="130" height="70" as="geometry" />
        </mxCell>
        <mxCell id="5bI8XY3w1S8-RSY9WLTQ-4" value="&lt;font style=&quot;font-size: 15px&quot;&gt;Take Image&lt;/font&gt;" style="rounded=0;whiteSpace=wrap;html=1;" parent="1" vertex="1">
          <mxGeometry x="170" y="345" width="130" height="70" as="geometry" />
        </mxCell>
        <mxCell id="5bI8XY3w1S8-RSY9WLTQ-5" value="&lt;font style=&quot;font-size: 16px&quot;&gt;Compress&lt;/font&gt;" style="rounded=0;whiteSpace=wrap;html=1;" parent="1" vertex="1">
          <mxGeometry x="470" y="345" width="130" height="70" as="geometry" />
        </mxCell>
        <mxCell id="5bI8XY3w1S8-RSY9WLTQ-6" value="&lt;font style=&quot;font-size: 22px&quot;&gt;Satellite&lt;/font&gt;" style="text;html=1;strokeColor=none;fillColor=none;align=center;verticalAlign=middle;whiteSpace=wrap;rounded=0;" parent="1" vertex="1">
          <mxGeometry x="160" y="290" width="90" height="30" as="geometry" />
        </mxCell>
        <mxCell id="5bI8XY3w1S8-RSY9WLTQ-7" value="" style="endArrow=classic;html=1;rounded=0;fontSize=14;entryX=0;entryY=0.5;entryDx=0;entryDy=0;" parent="1" source="5bI8XY3w1S8-RSY9WLTQ-4" target="5bI8XY3w1S8-RSY9WLTQ-3" edge="1">
          <mxGeometry width="50" height="50" relative="1" as="geometry">
            <mxPoint x="450" y="400" as="sourcePoint" />
            <mxPoint x="500" y="350" as="targetPoint" />
          </mxGeometry>
        </mxCell>
        <mxCell id="5bI8XY3w1S8-RSY9WLTQ-8" value="" style="endArrow=classic;html=1;rounded=0;fontSize=14;exitX=1;exitY=0.5;exitDx=0;exitDy=0;entryX=0;entryY=0.5;entryDx=0;entryDy=0;" parent="1" source="5bI8XY3w1S8-RSY9WLTQ-3" target="5bI8XY3w1S8-RSY9WLTQ-5" edge="1">
          <mxGeometry width="50" height="50" relative="1" as="geometry">
            <mxPoint x="450" y="400" as="sourcePoint" />
            <mxPoint x="500" y="350" as="targetPoint" />
          </mxGeometry>
        </mxCell>
        <mxCell id="5bI8XY3w1S8-RSY9WLTQ-9" value="" style="shape=mxgraph.signs.tech.video_camera;html=1;pointerEvents=1;fillColor=#000000;strokeColor=none;verticalLabelPosition=bottom;verticalAlign=top;align=center;fontSize=14;rotation=-180;" parent="1" vertex="1">
          <mxGeometry x="20" y="360" width="98" height="40" as="geometry" />
        </mxCell>
        <mxCell id="5bI8XY3w1S8-RSY9WLTQ-10" value="" style="endArrow=classic;startArrow=classic;html=1;rounded=0;fontSize=14;exitX=0;exitY=0.5;exitDx=0;exitDy=0;exitPerimeter=0;entryX=0;entryY=0.5;entryDx=0;entryDy=0;" parent="1" source="5bI8XY3w1S8-RSY9WLTQ-9" target="5bI8XY3w1S8-RSY9WLTQ-4" edge="1">
          <mxGeometry width="50" height="50" relative="1" as="geometry">
            <mxPoint x="400" y="400" as="sourcePoint" />
            <mxPoint x="450" y="350" as="targetPoint" />
          </mxGeometry>
        </mxCell>
        <mxCell id="5bI8XY3w1S8-RSY9WLTQ-11" value="" style="endArrow=classic;html=1;rounded=0;fontSize=14;jumpStyle=none;dashed=1;entryX=0;entryY=0.5;entryDx=0;entryDy=0;" parent="1" source="JAS4EgoxTvQcvhP8qU_K-1" target="5bI8XY3w1S8-RSY9WLTQ-14" edge="1">
          <mxGeometry width="50" height="50" relative="1" as="geometry">
            <mxPoint x="820" y="380" as="sourcePoint" />
            <mxPoint x="710" y="380" as="targetPoint" />
          </mxGeometry>
        </mxCell>
        <mxCell id="5bI8XY3w1S8-RSY9WLTQ-12" value="" style="rounded=0;whiteSpace=wrap;html=1;fontSize=14;fillColor=none;" parent="1" vertex="1">
          <mxGeometry x="810" y="280" width="330" height="200" as="geometry" />
        </mxCell>
        <mxCell id="5bI8XY3w1S8-RSY9WLTQ-14" value="&lt;font style=&quot;font-size: 16px&quot;&gt;Receive&lt;/font&gt;" style="rounded=0;whiteSpace=wrap;html=1;" parent="1" vertex="1">
          <mxGeometry x="830" y="345" width="130" height="70" as="geometry" />
        </mxCell>
        <mxCell id="5bI8XY3w1S8-RSY9WLTQ-15" value="&lt;font style=&quot;font-size: 16px&quot;&gt;Display Image&lt;/font&gt;" style="rounded=0;whiteSpace=wrap;html=1;" parent="1" vertex="1">
          <mxGeometry x="990" y="345" width="130" height="70" as="geometry" />
        </mxCell>
        <mxCell id="5bI8XY3w1S8-RSY9WLTQ-16" value="" style="endArrow=classic;html=1;rounded=0;fontSize=14;jumpStyle=none;exitX=1;exitY=0.5;exitDx=0;exitDy=0;" parent="1" source="5bI8XY3w1S8-RSY9WLTQ-14" target="5bI8XY3w1S8-RSY9WLTQ-15" edge="1">
          <mxGeometry width="50" height="50" relative="1" as="geometry">
            <mxPoint x="720" y="460" as="sourcePoint" />
            <mxPoint x="770" y="410" as="targetPoint" />
          </mxGeometry>
        </mxCell>
        <mxCell id="5bI8XY3w1S8-RSY9WLTQ-17" value="&lt;font style=&quot;font-size: 22px&quot;&gt;Ground Station&lt;/font&gt;" style="text;html=1;strokeColor=none;fillColor=none;align=center;verticalAlign=middle;whiteSpace=wrap;rounded=0;fontSize=14;" parent="1" vertex="1">
          <mxGeometry x="820" y="290" width="160" height="30" as="geometry" />
        </mxCell>
        <mxCell id="JAS4EgoxTvQcvhP8qU_K-1" value="&lt;font style=&quot;font-size: 16px&quot;&gt;Transmit&lt;/font&gt;" style="rounded=0;whiteSpace=wrap;html=1;" parent="1" vertex="1">
          <mxGeometry x="620" y="345" width="130" height="70" as="geometry" />
        </mxCell>
        <mxCell id="JAS4EgoxTvQcvhP8qU_K-2" value="" style="endArrow=classic;html=1;rounded=0;fontSize=14;exitX=1;exitY=0.5;exitDx=0;exitDy=0;entryX=0;entryY=0.5;entryDx=0;entryDy=0;" parent="1" edge="1">
          <mxGeometry width="50" height="50" relative="1" as="geometry">
            <mxPoint x="600" y="379.88" as="sourcePoint" />
            <mxPoint x="620" y="379.88" as="targetPoint" />
          </mxGeometry>
        </mxCell>
      </root>
    </mxGraphModel>
  </diagram>
</mxfile>
